<?xml version="1.0" standalone="no"?>
<!DOCTYPE svg PUBLIC "-//W3C//DTD SVG 20010904//EN"
 "http://www.w3.org/TR/2001/REC-SVG-20010904/DTD/svg10.dtd">
<svg version="1.0" xmlns="http://www.w3.org/2000/svg"
 width="260.000000pt" height="260.000000pt" viewBox="0 0 260.000000 260.000000"
 preserveAspectRatio="xMidYMid meet">
<metadata>
Created by potrace 1.11, written by Peter Selinger 2001-2013
</metadata>
<g transform="translate(0.000000,260.000000) scale(0.100000,-0.100000)"
fill="#000000" stroke="none">
<path d="M58 2584 c-61 -33 -58 41 -58 -1284 0 -1330 -4 -1252 60 -1285 25
-13 177 -15 1240 -15 1330 0 1252 -4 1285 60 13 25 15 177 15 1240 0 1330 4
1252 -60 1285 -25 13 -177 15 -1242 15 -1053 -1 -1217 -3 -1240 -16z m950
-200 c56 -28 90 -63 125 -128 l22 -41 3 -789 c2 -506 -1 -808 -8 -845 -14 -77
-70 -187 -124 -244 -104 -108 -217 -151 -379 -145 -93 3 -109 7 -180 40 -108
52 -177 119 -230 227 l-42 84 -3 826 c-2 752 -1 830 14 870 23 60 79 119 139
147 49 23 58 24 331 24 l280 0 52 -26z m672 -280 c42 -19 94 -64 223 -192 197
-196 227 -242 227 -351 0 -122 -8 -133 -406 -531 l-354 -355 0 691 c0 778 -8
703 80 743 66 30 159 28 230 -5z m575 -973 c60 -26 100 -65 129 -123 l26 -52
0 -280 c0 -261 -2 -284 -21 -326 -27 -60 -74 -107 -134 -136 l-50 -24 -515 0
-515 0 485 485 485 486 35 -6 c19 -4 53 -15 75 -24z m-1319 -1030 c-7 -11 -46
-11 -46 0 0 7 41 17 49 13 1 -2 0 -7 -3 -13z m81 -3 c-3 -8 -6 -5 -6 6 -1 11
2 17 5 13 3 -3 4 -12 1 -19z m223 12 c0 -5 -5 -10 -11 -10 -5 0 -7 5 -4 10 3
6 8 10 11 10 2 0 4 -4 4 -10z m285 0 c3 -5 1 -10 -4 -10 -6 0 -11 5 -11 10 0
6 2 10 4 10 3 0 8 -4 11 -10z m120 0 c3 -5 1 -10 -4 -10 -6 0 -11 5 -11 10 0
6 2 10 4 10 3 0 8 -4 11 -10z m-665 -8 c0 -5 -7 -9 -15 -9 -8 0 -15 4 -15 9 0
4 7 8 15 8 8 0 15 -4 15 -8z m120 -2 c0 -5 -5 -10 -11 -10 -5 0 -7 5 -4 10 3
6 8 10 11 10 2 0 4 -4 4 -10z m27 -12 c-3 -8 -6 -5 -6 6 -1 11 2 17 5 13 3 -3
4 -12 1 -19z m373 18 c0 -3 -4 -8 -10 -11 -5 -3 -10 -1 -10 4 0 6 5 11 10 11
6 0 10 -2 10 -4z m235 -6 c-3 -5 -10 -10 -16 -10 -5 0 -9 5 -9 10 0 6 7 10 16
10 8 0 12 -4 9 -10z"/>
<path d="M585 861 c-74 -33 -125 -114 -125 -196 0 -34 32 -110 58 -139 24 -27
111 -66 147 -66 83 0 163 51 196 125 21 45 24 119 8 162 -14 38 -77 102 -116
119 -45 19 -120 17 -168 -5z"/>
</g>
</svg>
